<svg xmlns="http://www.w3.org/2000/svg" viewBox="0 0 100 100">
  <defs>
    <linearGradient id="grad" x1="0%" y1="0%" x2="100%" y2="100%">
      <stop offset="0%" style="stop-color:#4338ca;stop-opacity:1" />
      <stop offset="100%" style="stop-color:#7c3aed;stop-opacity:1" />
    </linearGradient>
  </defs>
  
  <!-- Shield background -->
  <path d="M50 5 L85 20 L85 55 Q85 75 50 95 Q15 75 15 55 L15 20 Z" fill="url(#grad)" stroke="white" stroke-width="2"/>
  
  <!-- AI Brain icon -->
  <circle cx="50" cy="35" r="12" fill="white" opacity="0.9"/>
  <circle cx="45" cy="32" r="2" fill="#4338ca"/>
  <circle cx="55" cy="32" r="2" fill="#4338ca"/>
  <path d="M45 38 Q50 42 55 38" stroke="#4338ca" stroke-width="2" fill="none"/>
  
  <!-- Network nodes -->
  <circle cx="35" cy="55" r="4" fill="white" opacity="0.8"/>
  <circle cx="50" cy="60" r="4" fill="white" opacity="0.8"/>
  <circle cx="65" cy="55" r="4" fill="white" opacity="0.8"/>
  
  <!-- Connections -->
  <line x1="35" y1="55" x2="50" y2="60" stroke="white" stroke-width="2" opacity="0.6"/>
  <line x1="50" y1="60" x2="65" y2="55" stroke="white" stroke-width="2" opacity="0.6"/>
  <line x1="50" y1="47" x2="50" y2="56" stroke="white" stroke-width="2" opacity="0.6"/>
  
  <!-- Privacy indicator -->
  <circle cx="75" cy="25" r="8" fill="white" opacity="0.9"/>
  <path d="M75 20 L75 30 M70 25 L80 25" stroke="#4338ca" stroke-width="2"/>
</svg>